<?xml version="1.0" encoding="UTF-8" standalone="no"?>
<svg
   version="1.1"
   width="595.28009"
   height="841.89001"
   id="svg60"
   viewBox="0 0 595.28009 841.89001"
   xmlns="http://www.w3.org/2000/svg"
   xmlns:svg="http://www.w3.org/2000/svg">
  <defs
     id="defs64" />
  <g
     id="Layer1000"
     transform="translate(-30.833551,2.6811784)">
    <g
       id="Layer1001"
       transform="translate(-45.580032,-105.90655)">
      <path
         d="m 417.8898,426.65609 7.6144,-35.8135 h -9.9215 l -7.6179,35.8135 z m -36.3317,-13.9397 v 0 l 8.0289,-14.8776 h 0.1474 l 1.4003,14.8776 z m -7.8191,13.9397 v 0 l 3.82,-6.9965 h 14.5361 l 0.8884,6.9965 h 11.2147 l -6.5257,-35.8135 h -12.1031 l -21.7519,35.8135 z m -48.5129,0 v 0 h 8.9297 l 5.8255,-27.4298 h 0.1006 l 6.3278,27.4298 h 13.7384 l 7.6149,-35.8135 h -8.9237 l -5.6622,26.5915 -0.1131,0.0975 -6.3343,-26.689 h -13.8892 z m -5.6058,0 v 0 l 1.4814,-6.9463 h -17.3639 l 1.6166,-7.5895 h 15.9701 l 1.472,-6.9398 h -15.9732 l 1.5726,-7.3919 h 17.3574 l 1.4814,-6.946 h -27.2823 l -7.6085,35.8135 z m -28.6951,-25.2984 v 0 c 2.423,-8.6287 -4.6012,-11.2592 -11.9963,-11.2592 -7.486,0 -15.4238,2.3323 -17.621,10.8133 -0.8226,3.8702 0.2602,7.1439 3.5433,8.7319 7.0594,3.4211 14.6237,2.3791 13.591,7.2445 -0.5051,2.3788 -3.6754,3.5657 -5.9666,3.5657 -3.5688,0 -5.6563,-1.8332 -4.8997,-5.2073 h -9.9156 c -1.9207,9.7268 4.9122,12.1626 13.2398,12.1626 8.2831,0 16.4846,-3.5813 18.0915,-11.1206 2.0526,-9.6735 -6.5503,-10.2636 -12.2283,-11.8048 -2.4767,-0.6937 -5.4712,-1.5381 -4.9153,-4.1684 0.3733,-1.7827 2.6773,-3.2706 4.9561,-3.2706 1.6855,0 2.8939,0.3954 3.5782,1.1395 0.7375,0.7438 0.9603,1.7824 0.6247,3.1734 z"
         style="fill:#005681;fill-rule:evenodd"
         id="path29" />
    </g>
  </g>
</svg>
